<svg xmlns="http://www.w3.org/2000/svg" viewBox="0 0 160 160" width="160" height="160">
  <defs>
    <linearGradient id="sleepy-g" x1="0.2" y1="0.1" x2="0.8" y2="0.95"><stop offset="0" stop-color="#DCD3FF"/><stop offset="1" stop-color="#9C88F5"/></linearGradient><linearGradient id="sleepy-c" x1="0.2" y1="0.1" x2="0.8" y2="0.95"><stop offset="0" stop-color="#FF9AAE"/><stop offset="1" stop-color="#FF5C7A"/></linearGradient>
    <filter id="sleepy-shadow" x="-20%" y="-20%" width="140%" height="140%"><feDropShadow dx="0" dy="3" stdDeviation="3" flood-color="#2B1033" flood-opacity=".22"/></filter>
  </defs>
  <g fill="#fff" stroke="#fff" stroke-width="14" stroke-linejoin="round" stroke-linecap="round" filter="url(#sleepy-shadow)"><circle cx="80" cy="90" r="44"/><path d="M44 72 C50 40 86 26 112 36 C126 42 136 58 134 76 L128 84 C122 66 116 60 110 60 C90 58 62 64 44 72 Z"/>
      <circle cx="132" cy="80" r="9"/><path d="M16 46 h14 l-14 16 h14 M36 22 h11 l-11 12 h11" fill="none" stroke-width="14"/></g>
  <circle cx="80" cy="90" r="44" fill="url(#sleepy-g)"/><ellipse cx="60" cy="74" rx="11" ry="6" fill="#fff" opacity=".5" transform="rotate(-35 60 74)"/>
      <path d="M44 72 C50 40 86 26 112 36 C126 42 136 58 134 76 C126 64 118 58 110 58 C90 56 62 62 44 72 Z" fill="url(#sleepy-c)"/>
      <path d="M45 71 C64 61 90 55 112 58" fill="none" stroke="#FFF6EF" stroke-width="10" stroke-linecap="round" stroke-linejoin="round"/>
      <circle cx="132" cy="80" r="9" fill="#FFF6EF"/>
      <path d="M57 94 q7 6.3 14 0" fill="none" stroke="#2B1033" stroke-width="4.5" stroke-linecap="round"/><path d="M89 94 q7 6.3 14 0" fill="none" stroke="#2B1033" stroke-width="4.5" stroke-linecap="round"/><ellipse cx="55" cy="106" rx="7.5" ry="4.5" fill="#FF6B81" opacity=".42"/><ellipse cx="105" cy="106" rx="7.5" ry="4.5" fill="#FF6B81" opacity=".42"/>
      <ellipse cx="80" cy="112" rx="4.5" ry="5.5" fill="#2B1033"/>
      <path d="M16 46 h14 l-14 16 h14" fill="none" stroke="#2B1033" stroke-width="4.5" stroke-linecap="round" stroke-linejoin="round"/><path d="M36 22 h11 l-11 12 h11" fill="none" stroke="#2B1033" stroke-width="3.8" stroke-linecap="round" stroke-linejoin="round"/>
</svg>
