<svg xmlns="http://www.w3.org/2000/svg" viewBox="0 0 160 160" width="160" height="160">
  <defs>
    <linearGradient id="party-g" x1="0.2" y1="0.1" x2="0.8" y2="0.95"><stop offset="0" stop-color="#FFE38A"/><stop offset="1" stop-color="#FF9E86"/></linearGradient><linearGradient id="party-h" x1="0.2" y1="0.1" x2="0.8" y2="0.95"><stop offset="0" stop-color="#CBB8FF"/><stop offset="1" stop-color="#8E6CF0"/></linearGradient>
    <filter id="party-shadow" x="-20%" y="-20%" width="140%" height="140%"><feDropShadow dx="0" dy="3" stdDeviation="3" flood-color="#2B1033" flood-opacity=".22"/></filter>
  </defs>
  <g fill="#fff" stroke="#fff" stroke-width="14" stroke-linejoin="round" stroke-linecap="round" filter="url(#party-shadow)"><circle cx="80" cy="92" r="40"/><path d="M56 62 L90 20 L108 60 Z" stroke-linejoin="round"/><circle cx="90" cy="20" r="8"/>
      <path d="M22 52 l8 -3 M136 74 l8 3 M26 124 l8 -2 M132 120 l7 4" fill="none" stroke-width="16"/></g>
  <path d="M22 52 l8 -3" fill="none" stroke="#FF6B81" stroke-width="5" stroke-linecap="round" stroke-linejoin="round"/><path d="M136 74 l8 3" fill="none" stroke="#B9A6FF" stroke-width="5" stroke-linecap="round" stroke-linejoin="round"/><path d="M26 124 l8 -2" fill="none" stroke="#FFC24B" stroke-width="5" stroke-linecap="round" stroke-linejoin="round"/><path d="M132 120 l7 4" fill="none" stroke="#FF6B81" stroke-width="5" stroke-linecap="round" stroke-linejoin="round"/>
      <circle cx="80" cy="92" r="40" fill="url(#party-g)"/><ellipse cx="62" cy="76" rx="11" ry="6" fill="#fff" opacity=".5" transform="rotate(-35 62 76)"/>
      <path d="M56 62 L90 20 L108 60 Q82 68 56 62 Z" fill="url(#party-h)" stroke="url(#party-h)" stroke-width="2" stroke-linejoin="round"/>
      <path d="M71 46 L98 50" fill="none" stroke="#FFC24B" stroke-width="4" stroke-linecap="round" stroke-linejoin="round"/><path d="M64 55 L103 58" fill="none" stroke="#FF6B81" stroke-width="4" stroke-linecap="round" stroke-linejoin="round"/>
      <circle cx="90" cy="20" r="7" fill="#FFC24B"/>
      <path d="M60 90 q6 -7.199999999999999 12 0" fill="none" stroke="#2B1033" stroke-width="4.5" stroke-linecap="round"/><path d="M88 90 q6 -7.199999999999999 12 0" fill="none" stroke="#2B1033" stroke-width="4.5" stroke-linecap="round"/><ellipse cx="57" cy="102" rx="7.5" ry="4.5" fill="#FF6B81" opacity=".42"/><ellipse cx="103" cy="102" rx="7.5" ry="4.5" fill="#FF6B81" opacity=".42"/>
      <path d="M67 103 Q80 120 93 103 Z" fill="#2B1033" stroke="#2B1033" stroke-width="3" stroke-linejoin="round"/>
      <path d="M73 110 Q80 116 87 110 Q80 107 73 110 Z" fill="#FF6B81"/>
</svg>
