<svg xmlns="http://www.w3.org/2000/svg" viewBox="0 0 160 160" width="160" height="160">
  <defs>
    <linearGradient id="pizza-g" x1="0.5" y1="0" x2="0.5" y2="1"><stop offset="0" stop-color="#FFE58F"/><stop offset="1" stop-color="#FFB347"/></linearGradient>
    <filter id="pizza-shadow" x="-20%" y="-20%" width="140%" height="140%"><feDropShadow dx="0" dy="3" stdDeviation="3" flood-color="#2B1033" flood-opacity=".22"/></filter>
  </defs>
  <g fill="#fff" stroke="#fff" stroke-width="14" stroke-linejoin="round" stroke-linecap="round" filter="url(#pizza-shadow)"><path d="M28 46 Q80 22 132 46 L86 138 Q80 146 74 138 Z" stroke-linejoin="round"/></g>
  <path d="M30 48 Q80 26 130 48 L85 136 Q80 143 75 136 Z" fill="url(#pizza-g)"/>
      <path d="M30 48 Q80 26 130 48" fill="none" stroke="#E9A25A" stroke-width="13" stroke-linecap="round" stroke-linejoin="round"/>
      <circle cx="58" cy="66" r="7" fill="#FF6B81"/><circle cx="104" cy="64" r="6.5" fill="#FF6B81"/><circle cx="84" cy="112" r="6" fill="#FF6B81"/>
      <circle cx="70" cy="78" r="4.2" fill="#2B1033"/><circle cx="71.6" cy="76.2" r="1.5" fill="#fff"/><circle cx="92" cy="78" r="4.2" fill="#2B1033"/><circle cx="93.6" cy="76.2" r="1.5" fill="#fff"/>
      <path d="M72 90 q9 8 18 0" fill="none" stroke="#2B1033" stroke-width="4" stroke-linecap="round" stroke-linejoin="round"/>
</svg>
